<?xml version="1.0" standalone="no"?>
<!DOCTYPE svg PUBLIC "-//W3C//DTD SVG 20010904//EN"
 "http://www.w3.org/TR/2001/REC-SVG-20010904/DTD/svg10.dtd">
<svg version="1.0" xmlns="http://www.w3.org/2000/svg"
 width="725.000000pt" height="725.000000pt" viewBox="0 0 725.000000 725.000000"
 preserveAspectRatio="xMidYMid meet">
<metadata>
Created by potrace 1.11, written by Peter Selinger 2001-2013
</metadata>
<g transform="translate(0.000000,725.000000) scale(0.100000,-0.100000)"
fill="#000000" stroke="none">
<path d="M949 4989 c-47 -5 -153 -20 -235 -34 -82 -15 -210 -29 -284 -32 -117
-5 -146 -3 -219 16 -47 11 -86 20 -87 18 -2 -2 7 -34 20 -73 46 -134 47 -175
44 -939 -3 -784 1 -717 -53 -847 -6 -16 1 -18 86 -18 262 0 533 -61 747 -169
66 -33 73 -32 162 29 152 103 256 255 306 445 27 105 26 330 -4 447 -53 212
-163 362 -304 415 -27 10 -79 16 -138 17 -87 0 -101 -2 -161 -31 -78 -36 -136
-86 -178 -152 -43 -66 -39 -81 8 -34 70 72 168 91 231 45 36 -27 87 -116 113
-197 18 -58 22 -92 21 -200 0 -150 -15 -203 -91 -317 -95 -144 -251 -232 -335
-187 -44 23 -48 59 -48 393 0 342 5 386 52 480 51 102 103 143 316 250 168 85
196 103 243 154 121 132 149 306 76 466 -24 51 -26 53 -72 59 -56 8 -99 7
-216 -4z m-101 -186 c64 -40 80 -139 38 -228 -25 -53 -60 -89 -143 -149 -73
-52 -141 -130 -174 -201 l-29 -60 0 92 c0 50 5 95 10 98 6 3 10 16 10 28 0 36
29 137 56 197 42 93 112 150 182 150 29 0 52 16 52 36 0 18 -65 37 -103 29
-108 -23 -176 -132 -198 -319 -8 -68 -8 -68 -4 21 7 147 54 250 134 297 63 36
121 40 169 9z"/>
<path d="M6215 4976 c-120 -38 -203 -113 -264 -239 -51 -103 -71 -204 -71
-350 0 -233 68 -377 231 -488 30 -20 136 -78 235 -128 101 -51 205 -111 239
-138 157 -127 214 -290 149 -422 -36 -71 -86 -104 -169 -109 -96 -6 -124 11
-152 96 -42 124 -24 212 41 212 41 0 56 11 56 41 0 75 -134 79 -168 4 -27 -60
-6 -187 44 -261 15 -21 19 -32 9 -24 -44 36 -94 189 -95 286 l0 41 -122 6
c-146 6 -205 24 -259 78 l-39 39 0 -62 c0 -148 47 -330 111 -429 102 -160 314
-261 544 -261 171 1 303 55 427 178 114 113 176 255 185 424 21 366 -193 610
-640 731 -268 72 -363 161 -375 352 -6 99 10 155 60 212 51 58 123 82 190 65
85 -23 158 -132 158 -235 0 -62 -28 -131 -69 -168 -21 -19 -44 -37 -52 -39
-12 -5 -12 -8 -1 -19 10 -10 43 -14 125 -14 92 1 122 5 168 23 77 31 141 89
169 154 19 45 22 64 17 138 -2 47 -14 126 -26 176 l-22 92 -107 16 c-246 37
-452 46 -527 22z"/>
<path d="M3605 4883 c34 -83 35 -100 35 -760 l0 -653 125 0 124 0 3 428 c3
393 4 430 21 456 40 60 104 0 137 -128 18 -72 20 -111 20 -421 l0 -342 158
-16 c86 -10 168 -17 182 -17 l25 1 -28 20 c-28 21 -61 76 -80 134 -5 16 -12
192 -16 390 l-6 360 -25 44 c-43 75 -64 85 -199 91 -175 7 -182 17 -189 262
l-5 168 -144 0 c-134 0 -145 -1 -138 -17z"/>
<path d="M6272 4789 c-48 -24 -92 -81 -115 -149 -16 -48 -13 -68 5 -35 6 11
34 43 62 72 38 38 61 53 89 57 20 3 53 8 72 11 29 5 35 10 35 29 0 42 -77 50
-148 15z"/>
<path d="M2635 4765 c-22 -21 -25 -33 -25 -96 0 -53 -4 -77 -17 -91 -15 -17
-14 -18 18 -18 20 0 59 12 87 26 76 38 101 98 67 163 -25 49 -90 57 -130 16z"/>
<path d="M2369 4740 c-29 -28 -30 -34 -28 -99 3 -57 0 -74 -15 -90 -24 -26
-11 -27 64 -5 75 22 120 68 120 122 0 54 -7 70 -41 87 -42 22 -67 18 -100 -15z"/>
<path d="M1286 4678 c-36 -146 -98 -236 -212 -311 -82 -54 -65 -96 24 -61 67
25 143 105 171 179 22 58 41 205 27 205 -4 0 -8 -6 -10 -12z"/>
<path d="M3530 4565 c-35 -37 -137 -85 -182 -85 l-38 0 0 -443 c0 -384 -2
-445 -16 -465 -22 -31 -47 -27 -83 13 -61 69 -65 100 -69 513 l-3 372 -124 0
c-155 0 -158 -1 -139 -45 11 -27 14 -101 14 -352 0 -347 7 -423 43 -492 26
-51 85 -98 138 -110 19 -4 139 -6 267 -3 l232 5 0 558 c0 308 -4 559 -8 559
-5 0 -19 -11 -32 -25z"/>
<path d="M6865 4451 c-42 -38 -86 -67 -121 -81 -61 -22 -177 -42 -200 -33 -8
3 -14 1 -14 -5 0 -6 32 -16 70 -22 86 -14 165 -3 237 33 62 32 133 108 133
142 0 41 -34 30 -105 -34z"/>
<path d="M2440 4464 c-14 -2 -59 -9 -100 -15 -125 -18 -117 -12 -135 -90 -12
-54 -13 -79 -5 -109 12 -46 64 -95 117 -110 50 -15 169 -9 166 8 -2 6 2 12 9
12 9 0 9 3 0 12 -7 7 -12 29 -12 49 0 29 7 45 31 68 35 35 33 61 -4 61 -36 0
-65 -38 -70 -90 l-4 -45 -1 48 c-2 42 2 53 27 78 63 63 151 24 151 -66 0 -91
-29 -119 -217 -214 -137 -70 -169 -100 -217 -200 -26 -57 -30 -77 -30 -151 0
-73 4 -94 28 -148 33 -71 98 -137 169 -170 l44 -21 144 24 c79 12 210 31 292
41 l147 17 -18 21 c-75 82 -84 133 -91 516 -6 313 -7 327 -29 372 -19 38 -34
52 -77 74 -47 23 -69 26 -172 29 -65 2 -129 2 -143 -1z m180 -666 c0 -299 -4
-320 -54 -326 -40 -5 -106 65 -129 137 -19 60 -22 101 -7 101 6 0 10 8 10 18
0 34 60 139 110 193 63 68 66 97 10 89 -42 -5 -102 -95 -124 -185 -8 -33 -15
-51 -15 -39 -2 36 28 119 59 166 28 42 112 117 133 118 4 0 7 -123 7 -272z"/>
<path d="M4533 4453 c-46 -2 -83 -7 -83 -10 0 -3 -7 -42 -16 -86 -20 -97 -10
-141 41 -186 42 -36 90 -51 171 -51 74 0 89 12 72 57 -14 36 3 87 33 104 11 5
19 19 19 29 0 32 -53 27 -80 -7 -18 -23 -21 -37 -17 -76 2 -29 1 -43 -4 -35
-5 7 -9 37 -9 66 0 69 29 102 90 102 60 0 90 -33 90 -98 0 -82 -34 -117 -189
-196 -154 -78 -187 -105 -229 -183 -60 -114 -66 -239 -16 -341 46 -94 113
-127 304 -152 86 -11 368 -63 413 -76 17 -5 17 -4 4 23 -32 62 -37 134 -37
507 0 205 -4 398 -10 427 -33 178 -98 200 -547 182z m317 -665 c0 -310 -3
-324 -61 -321 -26 1 -42 11 -72 44 -45 50 -76 142 -58 171 6 10 11 23 11 30 0
32 53 122 105 178 58 63 67 93 29 98 -48 7 -123 -97 -143 -198 -6 -29 -9 -36
-10 -19 -2 41 26 121 60 173 29 42 111 115 132 116 4 0 7 -123 7 -272z"/>
<path d="M2109 4416 c-2 -2 -87 -9 -189 -15 -247 -16 -368 -28 -472 -48 -90
-17 -106 -26 -65 -37 37 -9 75 -44 100 -89 22 -41 22 -50 25 -451 3 -432 -4
-546 -38 -622 -12 -29 -15 -44 -7 -41 128 55 231 94 325 122 64 20 117 37 119
39 2 2 -12 7 -31 10 -18 4 -46 16 -61 28 -54 42 -55 54 -53 480 1 216 4 362 7
323 l6 -70 18 52 c16 47 38 76 81 111 17 14 12 38 -11 46 -29 11 -65 -6 -79
-38 -12 -27 -13 -28 -14 -8 0 33 43 72 80 72 90 0 124 -159 49 -229 -22 -21
-22 -21 -3 -36 23 -17 101 -35 152 -35 90 0 152 41 152 102 0 30 -26 50 -39
29 -11 -17 -8 270 3 292 7 14 3 17 -21 17 -16 0 -32 -2 -34 -4z m31 -350 c0
-2 -8 -10 -17 -17 -16 -13 -17 -12 -4 4 13 16 21 21 21 13z m-45 -36 c-3 -5
-12 -10 -18 -10 -7 0 -6 4 3 10 19 12 23 12 15 0z"/>
<path d="M5099 4393 c12 -16 26 -47 31 -69 5 -21 10 -224 10 -450 0 -467 3
-487 68 -546 31 -28 72 -46 209 -91 94 -30 222 -79 284 -107 63 -28 120 -54
128 -57 11 -5 12 0 7 23 -20 78 -26 244 -26 757 0 306 -3 557 -7 557 -4 0 -18
-10 -31 -22 -20 -20 -34 -23 -93 -22 -38 1 -80 5 -94 8 l-24 6 -3 -489 c-3
-465 -4 -490 -22 -510 -11 -12 -27 -21 -36 -21 -20 0 -52 33 -75 78 -39 78
-45 151 -45 563 l0 396 -77 7 c-43 3 -111 9 -152 13 l-74 6 22 -30z"/>
<path d="M3926 4328 c-13 -19 -16 -56 -15 -218 l1 -195 19 141 c10 78 26 161
35 185 25 70 28 90 13 100 -22 14 -37 10 -53 -13z"/>
<path d="M732 4077 c-49 -15 -102 -79 -102 -122 0 -49 28 -46 69 6 19 22 47
49 65 60 37 23 100 25 140 4 35 -19 37 -19 30 0 -4 9 -25 27 -49 40 -45 27
-95 31 -153 12z"/>
<path d="M3161 3844 c-1 -72 15 -168 36 -207 10 -20 20 -27 36 -25 33 5 32 32
-4 106 -17 37 -40 94 -50 127 l-18 60 0 -61z"/>
<path d="M5404 3625 c6 -129 32 -205 72 -205 28 0 25 41 -10 118 -20 43 -42
103 -51 133 l-15 54 4 -100z"/>
<path d="M3115 3309 c-752 -50 -1333 -205 -1775 -474 -133 -82 -174 -98 -226
-92 -24 2 -44 2 -44 -2 0 -3 25 -24 55 -45 30 -22 55 -41 55 -43 0 -1 -28 13
-62 31 -129 70 -239 93 -272 57 -42 -46 1 -81 142 -117 192 -49 287 -97 366
-185 25 -28 50 -66 56 -87 6 -20 14 -44 17 -52 3 -10 11 -2 25 25 120 238 713
456 1438 529 841 85 1722 18 2305 -176 149 -49 360 -150 442 -212 64 -48 120
-114 130 -153 6 -27 23 -31 23 -5 0 34 50 122 93 165 94 95 220 146 384 157
66 4 119 12 128 20 23 19 18 46 -12 70 -24 19 -37 21 -83 17 -60 -5 -159 -37
-232 -74 -27 -13 -48 -22 -48 -20 0 2 27 23 60 47 33 24 60 47 60 51 0 4 -18
5 -40 2 -50 -7 -93 10 -220 87 -117 71 -263 145 -380 193 -363 150 -859 249
-1425 287 -174 11 -784 11 -960 -1z m307 -111 c21 -17 32 -159 14 -183 -6 -9
-31 -19 -54 -22 l-42 -6 0 89 c0 49 -3 99 -6 112 -6 20 -3 22 33 22 22 0 46
-6 55 -12z m266 0 c8 -8 12 -46 12 -105 0 -76 -3 -93 -15 -93 -12 0 -15 13
-15 60 0 53 -2 60 -20 60 -18 0 -20 -7 -20 -60 0 -55 -2 -60 -21 -60 -21 0
-22 3 -16 96 4 64 10 100 19 105 19 13 62 11 76 -3z m461 -7 c20 -13 5 -29
-22 -24 -21 4 -25 0 -30 -34 -4 -21 -7 -57 -7 -81 0 -40 2 -43 25 -40 29 4 34
-13 7 -23 -12 -5 -28 -2 -42 8 -20 14 -22 22 -18 93 2 46 9 84 17 93 15 18 48
22 70 8z m251 -27 c0 -10 -8 -12 -30 -7 -18 3 -30 1 -30 -5 0 -6 -3 -17 -6
-26 -4 -12 0 -16 15 -16 12 0 21 -6 21 -15 0 -8 -9 -15 -20 -15 -14 0 -20 -7
-20 -22 0 -13 -3 -33 -6 -45 -6 -21 -3 -23 31 -23 25 0 35 -4 33 -12 -3 -7
-12 -13 -21 -12 -9 0 -31 1 -48 2 l-31 2 7 68 c3 37 7 85 7 107 l0 40 49 -3
c33 -3 49 -8 49 -18z m-1450 6 c13 -7 20 -26 25 -67 3 -32 8 -75 11 -95 5 -29
2 -38 -9 -38 -19 0 -27 21 -27 71 0 35 -3 39 -24 39 -22 0 -24 -3 -19 -42 2
-24 6 -51 8 -60 2 -12 -3 -18 -15 -18 -14 0 -19 11 -24 53 -11 89 -7 141 11
155 20 15 38 15 63 2z m1683 -38 c12 -11 16 -23 12 -37 -3 -11 -9 -49 -11 -85
-3 -36 -9 -69 -14 -74 -18 -18 -26 5 -20 54 5 36 3 54 -6 61 -20 16 -34 2 -34
-34 0 -47 -10 -77 -26 -77 -15 0 -11 84 8 173 10 47 11 48 42 41 17 -3 39 -13
49 -22z m-1953 -78 l13 -96 28 4 c18 3 29 0 29 -7 0 -13 -75 -29 -91 -20 -5 4
-7 11 -3 17 3 5 1 45 -6 89 -7 43 -10 85 -6 94 13 34 24 10 36 -81z m2150 52
c0 -8 -7 -47 -15 -86 -16 -74 -14 -90 10 -90 16 0 19 10 38 112 9 52 15 66 25
59 19 -12 -5 -158 -30 -183 -25 -25 -55 -22 -73 6 -15 22 -15 32 1 110 11 58
21 86 30 86 8 0 14 -6 14 -14z m-2346 -18 c23 -38 41 -155 26 -173 -14 -16
-75 -21 -84 -6 -4 5 -13 44 -22 86 -15 72 -15 78 2 96 23 26 60 24 78 -3z
m2664 -57 c3 -9 -5 -11 -32 -6 -22 5 -36 3 -36 -3 0 -6 -3 -17 -6 -26 -4 -12
0 -16 15 -16 12 0 21 -6 21 -14 0 -8 -8 -12 -23 -9 -21 4 -25 -1 -34 -41 l-10
-46 33 -6 c20 -4 31 -11 28 -18 -6 -16 -94 1 -94 18 0 6 9 45 20 86 11 41 20
85 20 96 0 21 2 21 47 10 26 -7 49 -18 51 -25z m-2905 14 c-1 -5 -14 -11 -28
-13 -30 -4 -30 -4 -9 -88 17 -67 33 -85 58 -65 17 14 29 2 15 -16 -14 -16 -63
-17 -76 0 -6 6 -18 45 -29 86 l-18 73 23 20 c25 19 68 21 64 3z m3097 -74 c0
-9 -12 -51 -26 -93 -21 -63 -30 -79 -49 -84 -25 -6 -45 1 -45 16 0 5 10 10 22
12 17 2 26 18 45 72 15 47 20 73 13 81 -13 16 -3 24 21 18 10 -3 19 -13 19
-22z m-3342 7 c-3 -7 -13 -13 -24 -13 -10 0 -20 -8 -22 -18 -3 -14 2 -17 26
-15 40 3 57 -13 72 -69 13 -44 12 -47 -10 -65 -24 -19 -61 -21 -61 -3 0 6 12
11 26 13 28 4 29 11 11 62 -11 30 -18 36 -52 40 -32 4 -40 9 -42 29 -3 15 3
30 14 38 23 17 67 17 62 1z m-218 -66 c0 -5 -12 -14 -26 -21 -31 -14 -29 -46
4 -45 25 1 30 -21 7 -30 -14 -5 -14 -10 0 -43 20 -48 19 -47 54 -35 49 17 39
-12 -11 -31 -23 -9 -42 -16 -43 -14 -1 1 -17 40 -35 87 -19 47 -38 88 -44 92
-13 9 -8 14 34 32 40 17 60 20 60 8z m3795 -25 c12 -17 11 -26 -6 -71 -42
-106 -54 -126 -67 -118 -10 7 -8 19 8 56 25 59 25 62 1 69 -15 4 -23 -5 -36
-42 -21 -54 -29 -66 -44 -57 -6 4 -3 22 9 52 11 25 20 54 20 64 0 10 13 32 29
48 31 34 61 34 86 -1z"/>
<path d="M3370 3105 c0 -78 2 -85 20 -85 18 0 20 7 20 79 0 75 -6 91 -36 91
-2 0 -4 -38 -4 -85z"/>
<path d="M3630 3166 c0 -20 5 -26 21 -26 15 0 20 5 17 22 -5 34 -38 37 -38 4z"/>
<path d="M2900 3125 c0 -27 1 -28 24 -19 24 9 20 44 -4 44 -15 0 -20 -7 -20
-25z"/>
<path d="M4577 3123 c-4 -3 -7 -15 -7 -25 0 -21 36 -25 43 -5 9 27 -17 50 -36
30z"/>
<path d="M2420 3075 c0 -4 16 -85 26 -132 2 -13 11 -23 19 -23 28 0 28 14 0
138 -3 14 -13 22 -25 22 -11 0 -20 -2 -20 -5z"/>
<path d="M5511 2871 c-12 -21 -5 -31 21 -31 13 0 18 7 18 25 0 30 -25 34 -39
6z"/>
</g>
</svg>
